<svg xmlns="http://www.w3.org/2000/svg" xmlns:xlink="http://www.w3.org/1999/xlink" width="375" viewBox="0 0 375 375" height="375" version="1.0"><defs><g id="b"><path d="M 14.660156 -17.285156 L 14.660156 -4.339844 C 14.480469 -4.992188 14.269531 -5.640625 14.039062 -6.238281 L 9.773438 -17.285156 L 1.300781 -17.285156 L 1.300781 0 L 6.238281 0 L 6.238281 -12.945312 C 6.445312 -12.164062 6.679688 -11.4375 6.941406 -10.734375 L 11.125 0 L 19.601562 0 L 19.601562 -17.285156 Z M 14.660156 -17.285156"/></g><g id="c"><path d="M 6.523438 -4.105469 L 6.523438 -6.890625 L 14.609375 -6.890625 L 14.609375 -10.65625 L 6.523438 -10.65625 L 6.523438 -13.179688 L 15.390625 -13.179688 L 15.390625 -17.285156 L 1.300781 -17.285156 L 1.300781 0 L 15.46875 0 L 15.46875 -4.105469 Z M 6.523438 -4.105469"/></g><g id="d"><path d="M 23.5 -17.285156 L 21.289062 -3.222656 L 18.636719 -17.285156 L 10.96875 -17.285156 L 8.320312 -3.222656 L 6.109375 -17.285156 L 1.039062 -17.285156 L 3.742188 0 L 12.554688 0 L 14.792969 -12.945312 L 17.050781 0 L 25.890625 0 L 28.59375 -17.285156 Z M 23.5 -17.285156"/></g><g id="e"><path d="M 10.242188 0.414062 C 16.765625 0.414062 19.132812 -1.636719 19.574219 -7.253906 L 14.167969 -7.253906 C 13.984375 -4.914062 13.101562 -3.820312 10.214844 -3.820312 C 7.410156 -3.820312 6.34375 -5.433594 6.34375 -8.605469 C 6.34375 -11.855469 7.539062 -13.464844 10.371094 -13.464844 C 13.179688 -13.464844 13.960938 -12.242188 14.117188 -10.113281 L 19.46875 -10.113281 C 19.105469 -15.285156 16.636719 -17.703125 10.242188 -17.703125 C 3.351562 -17.703125 0.910156 -13.101562 0.910156 -8.605469 C 0.910156 -4.003906 3.351562 0.414062 10.242188 0.414062 Z M 10.242188 0.414062"/></g><g id="f"><path d="M 14.945312 0 L 20.171875 0 L 14.425781 -17.285156 L 6.394531 -17.285156 L 0.648438 0 L 5.875 0 L 6.863281 -2.964844 L 13.960938 -2.964844 Z M 8.164062 -6.863281 L 10.398438 -13.621094 L 12.660156 -6.863281 Z M 8.164062 -6.863281"/></g><g id="g"><path d="M 0.78125 -5.5625 C 1.039062 -2.523438 3.015625 0.441406 8.734375 0.441406 C 14.582031 0.441406 16.714844 -1.949219 16.714844 -5.355469 C 16.714844 -8.550781 15.023438 -10.476562 10.996094 -10.8125 L 8.007812 -11.074219 C 6.757812 -11.179688 6.289062 -11.75 6.289062 -12.503906 C 6.289062 -13.4375 7.277344 -13.960938 8.707031 -13.960938 C 10.320312 -13.960938 11.253906 -13.230469 11.410156 -12.085938 L 16.558594 -12.085938 C 16.351562 -15.128906 14.167969 -17.703125 8.683594 -17.703125 C 3.585938 -17.703125 1.039062 -15.46875 1.039062 -12.113281 C 1.039062 -9.097656 2.910156 -7.253906 6.109375 -6.914062 L 9.773438 -6.523438 C 10.867188 -6.394531 11.464844 -5.925781 11.464844 -4.9375 C 11.464844 -3.925781 10.605469 -3.300781 8.839844 -3.300781 C 6.757812 -3.300781 6.003906 -4.523438 5.847656 -5.5625 Z M 0.78125 -5.5625"/></g><g id="h"><path d="M 0.378906 0 L 2.148438 0 C 3.359375 0 3.738281 -0.46875 3.738281 -1.46875 L 3.738281 -6.648438 L 2.710938 -6.648438 L 2.710938 -0.828125 L 0.378906 -0.828125 Z M 0.378906 0"/></g><g id="i"><path d="M 3.917969 0.171875 C 6.296875 0.171875 7.289062 -1.378906 7.289062 -3.328125 C 7.289062 -5.25 6.296875 -6.828125 3.917969 -6.828125 C 1.539062 -6.828125 0.550781 -5.257812 0.550781 -3.328125 C 0.550781 -1.371094 1.539062 0.171875 3.917969 0.171875 Z M 1.628906 -3.328125 C 1.628906 -5.078125 2.289062 -5.976562 3.917969 -5.976562 C 5.546875 -5.976562 6.207031 -5.078125 6.207031 -3.328125 C 6.207031 -1.578125 5.546875 -0.679688 3.917969 -0.679688 C 2.289062 -0.679688 1.628906 -1.578125 1.628906 -3.328125 Z M 1.628906 -3.328125"/></g><g id="j"><path d="M 4.660156 -3.4375 C 5.308594 -3.550781 5.96875 -4.039062 5.96875 -5.019531 C 5.96875 -5.917969 5.429688 -6.648438 4.039062 -6.648438 L 0.648438 -6.648438 L 0.648438 0 L 3.96875 0 C 5.359375 0 6.058594 -0.730469 6.058594 -1.800781 C 6.058594 -2.800781 5.4375 -3.328125 4.660156 -3.4375 Z M 3.800781 -5.820312 C 4.640625 -5.820312 4.890625 -5.488281 4.890625 -4.839844 C 4.890625 -4.160156 4.519531 -3.820312 3.667969 -3.820312 L 1.679688 -3.820312 L 1.679688 -5.820312 Z M 3.847656 -0.828125 L 1.679688 -0.828125 L 1.679688 -3.058594 L 3.667969 -3.058594 C 4.589844 -3.058594 4.980469 -2.648438 4.980469 -1.917969 C 4.980469 -1.328125 4.667969 -0.828125 3.847656 -0.828125 Z M 3.847656 -0.828125"/></g><g id="l"><path d="M 5.667969 -5.820312 L 5.667969 -6.648438 L 0.648438 -6.648438 L 0.648438 0 L 1.679688 0 L 1.679688 -2.929688 L 5.367188 -2.929688 L 5.367188 -3.738281 L 1.679688 -3.738281 L 1.679688 -5.820312 Z M 5.667969 -5.820312"/></g><g id="m"><path d="M 4.398438 -5.820312 L 4.398438 -6.648438 L 0.648438 -6.648438 L 0.648438 -5.820312 L 2.007812 -5.820312 L 2.007812 -0.828125 L 0.648438 -0.828125 L 0.648438 0 L 4.398438 0 L 4.398438 -0.828125 L 3.039062 -0.828125 L 3.039062 -5.820312 Z M 4.398438 -5.820312"/></g><g id="n"><path d="M 5.46875 -6.648438 L 5.46875 -0.648438 C 5.320312 -1 5.140625 -1.410156 5 -1.679688 L 2.429688 -6.648438 L 0.648438 -6.648438 L 0.648438 0 L 1.679688 0 L 1.679688 -6 C 1.800781 -5.679688 1.96875 -5.328125 2.160156 -4.949219 L 4.71875 0 L 6.5 0 L 6.5 -6.648438 Z M 5.46875 -6.648438"/></g><g id="o"><path d="M 3.527344 -6.648438 L 0.648438 -6.648438 L 0.648438 0 L 3.527344 0 C 5.707031 0 6.660156 -1.53125 6.660156 -3.339844 C 6.660156 -5.128906 5.707031 -6.648438 3.527344 -6.648438 Z M 3.328125 -0.828125 L 1.679688 -0.828125 L 1.679688 -5.820312 L 3.328125 -5.820312 C 4.980469 -5.820312 5.578125 -5 5.578125 -3.339844 C 5.578125 -1.679688 4.980469 -0.828125 3.328125 -0.828125 Z M 3.328125 -0.828125"/></g><g id="p"><path d="M 1.679688 -0.828125 L 1.679688 -3 L 5.367188 -3 L 5.367188 -3.808594 L 1.679688 -3.808594 L 1.679688 -5.820312 L 5.667969 -5.820312 L 5.667969 -6.648438 L 0.648438 -6.648438 L 0.648438 0 L 5.699219 0 L 5.699219 -0.828125 Z M 1.679688 -0.828125"/></g><g id="q"><path d="M 5.75 -1.71875 C 5.75 -2.648438 5.328125 -2.9375 4.660156 -3.160156 C 5.398438 -3.347656 5.957031 -3.9375 5.957031 -4.847656 C 5.957031 -5.949219 5.21875 -6.648438 3.828125 -6.648438 L 0.648438 -6.648438 L 0.648438 0 L 1.679688 0 L 1.679688 -2.878906 L 3.359375 -2.878906 C 4.21875 -2.878906 4.75 -2.53125 4.75 -1.570312 L 4.75 -1.050781 C 4.75 -0.511719 4.820312 -0.171875 4.878906 0 L 5.886719 0 C 5.839844 -0.191406 5.75 -0.550781 5.75 -1.089844 Z M 3.757812 -3.640625 L 1.679688 -3.640625 L 1.679688 -5.820312 L 3.71875 -5.820312 C 4.527344 -5.820312 4.878906 -5.429688 4.878906 -4.777344 C 4.878906 -4.070312 4.609375 -3.640625 3.757812 -3.640625 Z M 3.757812 -3.640625"/></g><clipPath id="a"><path d="M 123.738281 100.640625 L 251.238281 100.640625 L 251.238281 222.09375 L 123.738281 222.09375 Z M 123.738281 100.640625"/></clipPath></defs><path fill="#EBEBEB" d="M 245.3125 160.144531 L 129.671875 160.144531 L 129.671875 124.632812 L 245.3125 124.632812 Z M 245.3125 160.144531"/><path fill="#177FEB" d="M 245.3125 217.019531 L 129.671875 217.019531 L 129.671875 160.144531 L 245.3125 160.144531 Z M 245.3125 217.019531"/><g clip-path="url(#a)"><path fill="#2A3255" d="M 242.242188 119.695312 L 221.652344 119.695312 L 221.652344 109.59375 C 221.652344 104.382812 218.925781 100.597656 215.167969 100.597656 L 161.78125 100.597656 C 158.019531 100.597656 155.292969 104.378906 155.292969 109.59375 L 155.292969 119.695312 L 132.742188 119.695312 C 127.773438 119.695312 123.738281 123.730469 123.738281 128.691406 L 123.738281 213.101562 C 123.738281 218.0625 127.773438 222.097656 132.742188 222.097656 L 242.242188 222.097656 C 247.207031 222.097656 251.246094 218.066406 251.246094 213.101562 L 251.246094 128.691406 C 251.246094 123.730469 247.207031 119.695312 242.242188 119.695312 Z M 163.476562 109.59375 C 163.476562 109.28125 163.5 109.011719 163.535156 108.777344 L 213.410156 108.777344 C 213.445312 109.007812 213.46875 109.28125 213.46875 109.59375 L 213.46875 119.695312 L 163.476562 119.695312 Z M 243.0625 213.101562 C 243.0625 213.550781 242.695312 213.921875 242.242188 213.921875 L 132.742188 213.921875 C 132.289062 213.921875 131.921875 213.550781 131.921875 213.101562 L 131.921875 164.429688 L 170.304688 164.429688 L 170.304688 166.882812 C 170.304688 167.96875 171.183594 168.847656 172.269531 168.847656 L 204.679688 168.847656 C 205.761719 168.847656 206.644531 167.96875 206.644531 166.882812 L 206.644531 164.429688 L 243.0625 164.429688 Z M 243.0625 156.25 L 131.921875 156.25 L 131.921875 128.691406 C 131.921875 128.242188 132.289062 127.875 132.742188 127.875 L 242.242188 127.875 C 242.695312 127.875 243.0625 128.242188 243.0625 128.691406 Z M 243.0625 156.25"/></g><g fill="#2A3255"><use x="116.366" y="258.787" xmlns:xlink="http://www.w3.org/1999/xlink" xlink:href="#b" xlink:type="simple" xlink:actuate="onLoad" xlink:show="embed"/></g><g fill="#2A3255"><use x="137.264" y="258.787" xmlns:xlink="http://www.w3.org/1999/xlink" xlink:href="#c" xlink:type="simple" xlink:actuate="onLoad" xlink:show="embed"/></g><g fill="#2A3255"><use x="153.769" y="258.787" xmlns:xlink="http://www.w3.org/1999/xlink" xlink:href="#d" xlink:type="simple" xlink:actuate="onLoad" xlink:show="embed"/></g><g fill="#2A3255"><use x="183.4" y="258.787" xmlns:xlink="http://www.w3.org/1999/xlink" xlink:href="#e" xlink:type="simple" xlink:actuate="onLoad" xlink:show="embed"/></g><g fill="#2A3255"><use x="203.752" y="258.787" xmlns:xlink="http://www.w3.org/1999/xlink" xlink:href="#f" xlink:type="simple" xlink:actuate="onLoad" xlink:show="embed"/></g><g fill="#2A3255"><use x="224.572" y="258.787" xmlns:xlink="http://www.w3.org/1999/xlink" xlink:href="#g" xlink:type="simple" xlink:actuate="onLoad" xlink:show="embed"/></g><g fill="#2A3255"><use x="242.117" y="258.787" xmlns:xlink="http://www.w3.org/1999/xlink" xlink:href="#c" xlink:type="simple" xlink:actuate="onLoad" xlink:show="embed"/></g><g fill="#177FEB"><use x="152.318" y="276.887" xmlns:xlink="http://www.w3.org/1999/xlink" xlink:href="#h" xlink:type="simple" xlink:actuate="onLoad" xlink:show="embed"/></g><g fill="#177FEB"><use x="157.866" y="276.887" xmlns:xlink="http://www.w3.org/1999/xlink" xlink:href="#i" xlink:type="simple" xlink:actuate="onLoad" xlink:show="embed"/></g><g fill="#177FEB"><use x="166.903" y="276.887" xmlns:xlink="http://www.w3.org/1999/xlink" xlink:href="#j" xlink:type="simple" xlink:actuate="onLoad" xlink:show="embed"/></g><g fill="#177FEB"><use x="174.66" y="276.887" xmlns:xlink="http://www.w3.org/1999/xlink" xlink:href="#k" xlink:type="simple" xlink:actuate="onLoad" xlink:show="embed"/></g><g fill="#177FEB"><use x="178.319" y="276.887" xmlns:xlink="http://www.w3.org/1999/xlink" xlink:href="#l" xlink:type="simple" xlink:actuate="onLoad" xlink:show="embed"/></g><g fill="#177FEB"><use x="185.707" y="276.887" xmlns:xlink="http://www.w3.org/1999/xlink" xlink:href="#m" xlink:type="simple" xlink:actuate="onLoad" xlink:show="embed"/></g><g fill="#177FEB"><use x="191.955" y="276.887" xmlns:xlink="http://www.w3.org/1999/xlink" xlink:href="#n" xlink:type="simple" xlink:actuate="onLoad" xlink:show="embed"/></g><g fill="#177FEB"><use x="200.302" y="276.887" xmlns:xlink="http://www.w3.org/1999/xlink" xlink:href="#o" xlink:type="simple" xlink:actuate="onLoad" xlink:show="embed"/></g><g fill="#177FEB"><use x="208.609" y="276.887" xmlns:xlink="http://www.w3.org/1999/xlink" xlink:href="#p" xlink:type="simple" xlink:actuate="onLoad" xlink:show="embed"/></g><g fill="#177FEB"><use x="216.107" y="276.887" xmlns:xlink="http://www.w3.org/1999/xlink" xlink:href="#q" xlink:type="simple" xlink:actuate="onLoad" xlink:show="embed"/></g></svg>